
<svg xmlns="http://www.w3.org/2000/svg" width="24" height="24" style="fill:currentColor" version="1.0" viewBox="0 0 768 768">
  <path d="M246 14c-11 4-18 11-23 19l-2 14c0 11 3 18 10 25s14 10 24 10c9 0 14-2 21-7 17-13 19-37 4-52-7-6-14-9-24-10l-10 1zm450 82c-7 2-9 3-15 8-8 6-14 15-17 25-2 7-2 20 1 27 2 7 8 15 13 19l5 4c5 5 17 8 26 8 18 0 34-10 42-27 3-7 4-8 4-17 0-10-1-16-5-24-3-5-14-17-19-19-11-6-25-7-35-4zm-411 2-4 2-3 1-5 2c-4 1-5 4-3 8l2 3 3 8a753 753 0 0 1 12 27l8 16a774 774 0 0 0 25 59l5 10 2 5a542 542 0 0 1 23 52l5 12 4 9 5 8 7-3 9-4c3-1 4-4 2-8l-11-24a556 556 0 0 0-23-51l-6-15a181 181 0 0 0-7-15l-3-6a621 621 0 0 1-20-47l-7-16a916 916 0 0 0-17-35l-3 1zm175 26c-16 2-29 18-29 34 0 15 10 28 24 33 8 2 13 3 20 0 11-3 18-10 22-20 2-4 3-7 3-13 0-11-2-16-10-24l-9-7-3-1c-3-2-12-3-19-2zm-390 6c-19 3-41 17-49 32l-3 6c-3 5-3 7-5 13-3 10-3 26 0 35a74 74 0 0 0 26 38c13 11 24 14 42 14 15 0 25-3 36-10 15-10 25-23 31-40 2-8 2-31-1-40-8-24-24-39-48-46-5-2-22-3-30-2zm578 60-17 18-18 20-18 19a1064 1064 0 0 0-32 35l-32 34-6 7-6 6-3 4 8 8 9 7 3-3 10-11a1113 1113 0 0 0 40-43l18-19a1163 1163 0 0 1 50-54l10-11 6-7-8-8-8-8-6 6zm-197 25-1 7-3 15-5 42a622 622 0 0 1-3 24l19 3c2 0 3 0 4-6l2-14a2330 2330 0 0 1 9-69l-9-2h-13zm-290 30-9 13-2 2 4 4 10 8a981 981 0 0 1 61 42 162 162 0 0 1 16 11l1 1 8 5 13 10 8 5 8 6a626 626 0 0 0 29 20c1 0 7-7 12-16 1-2 1-2-1-4a340 340 0 0 0-27-19 133 133 0 0 1-15-11l-9-6a1189 1189 0 0 0-68-48 437 437 0 0 1-33-22c-2-3-5-3-6-1zm256 83a113 113 0 0 0-46 15l-5 3a128 128 0 0 0-37 39 112 112 0 0 0-14 81 118 118 0 0 0 56 78l19 9c22 6 22 6 39 6 16 0 18 0 27-2l13-4a120 120 0 0 0 75-134c-6-23-16-41-31-57a100 100 0 0 0-22-17l-9-5c-18-9-29-12-47-12h-18zm29 48c12 2 22 8 32 18l10 11 3 6a70 70 0 0 1-3 71c-1 3-17 18-20 20-16 8-25 11-38 11-39 0-70-31-70-70 0-13 3-22 11-38a88 88 0 0 1 37-28c10-4 25-4 38-1zm-245 57c-8 1-19 10-23 16-10 21-1 44 21 51 8 2 11 3 18 0 8-2 13-5 17-10 5-6 7-9 9-17 4-20-11-40-31-41l-12 1zm78 17c-14 2-13 0-13 13 0 9 1 11 2 12l24-4-1-11c-1-8-2-11-3-11l-9 1zm31 79a275 275 0 0 0-10 9 257 257 0 0 0-25 21 341 341 0 0 0-25 21 2013 2013 0 0 1-65 55c-4 3-4 4 1 8l6 8 4 4 6-4 13-11a341 341 0 0 0 17-14 191 191 0 0 0 19-16l10-9 7-6 11-9a2614 2614 0 0 1 50-45l-11-13-3-3-5 4zm202 27-14 9c-3 0 0 5 6 14l7 10 5-4 9-5c3-2 5-5 3-6l-7-11-5-7h-4zm40 39c-7 1-13 3-15 5l-4 1c-4 2-14 13-18 21-3 7-3 8-3 19 0 9 0 11 2 16 6 14 17 24 31 29 13 4 28 1 40-8 26-19 25-58-2-75l-10-6c-5-2-15-3-22-2zm-438 48c-6 1-19 7-19 8l-1 1c-1 0-5 3-9 8a55 55 0 0 0-16 39 60 60 0 0 0 8 29c2 5 14 18 19 20 12 7 19 9 31 9a60 60 0 0 0 51-31c10-18 9-41-2-58-9-14-22-23-38-26h-24z"/>
</svg>
